<?xml version="1.0" encoding="UTF-8"?>
<svg id="Layer_1" xmlns="http://www.w3.org/2000/svg" version="1.1" viewBox="0 0 512 512">
  <!-- Generator: Adobe Illustrator 29.8.2, SVG Export Plug-In . SVG Version: 2.1.1 Build 3)  -->
  <defs>
    <style>
      .st0 {
        fill: #fff;
      }

      .st1 {
        fill: #283b52;
      }
    </style>
  </defs>
  <circle class="st0" cx="256.5" cy="255.89" r="256"/>
  <path class="st1" d="M399.53,242.93c-7.21,0-13.06-5.85-13.06-13.06-.06-57.72-46.83-104.49-104.55-104.55-7.21,0-13.06-5.85-13.06-13.06s5.84-13.07,13.06-13.07c72.15.08,130.61,58.54,130.69,130.69,0,7.21-5.85,13.06-13.06,13.06h0ZM360.32,229.86c0-43.31-35.11-78.41-78.41-78.41-7.21,0-13.06,5.85-13.06,13.06s5.85,13.06,13.06,13.06c28.87,0,52.28,23.4,52.28,52.28,0,7.21,5.85,13.06,13.06,13.06s13.06-5.85,13.06-13.06h0ZM388.84,388.83l11.89-13.71c15.77-15.81,15.77-41.39,0-57.2-.41-.41-31.85-24.6-31.85-24.6-15.68-14.93-40.31-14.88-55.95.08l-24.91,20.99c-41.07-16.99-73.66-49.65-90.59-90.75l20.91-24.83c14.97-15.64,15.02-40.28.09-55.96,0,0-24.22-31.4-24.62-31.81-15.52-15.62-40.7-15.89-56.53-.6l-15.02,13.06c-88.79,103.01,102.4,292.73,208.81,289.32,21.71.13,42.55-8.53,57.78-23.99h0Z"/>
</svg>