<?xml version="1.0" encoding="UTF-8"?>
<svg id="Filled" xmlns="http://www.w3.org/2000/svg" version="1.1" viewBox="0 0 512 512">
  <!-- Generator: Adobe Illustrator 29.8.2, SVG Export Plug-In . SVG Version: 2.1.1 Build 3)  -->
  <defs>
    <style>
      .st0 {
        fill: #fff;
      }

      .st1 {
        fill: #283b52;
      }
    </style>
  </defs>
  <circle class="st0" cx="256.5" cy="255.89" r="256"/>
  <path class="st1" d="M411.9,171.94l-109.43,109.43c-25.4,25.34-66.53,25.34-91.93,0l-109.44-109.43c-.18,2.05-.6,3.91-.6,5.95v156c.04,35.88,29.12,64.96,65,65h182c35.88-.04,64.96-29.12,65-65v-156c0-2.04-.41-3.9-.6-5.95h0Z"/>
  <path class="st1" d="M284.08,262.99l118.74-118.75c-11.7-19.4-32.67-31.28-55.32-31.34h-182c-22.65.06-43.63,11.94-55.32,31.34l118.74,118.75c15.25,15.19,39.92,15.19,55.17,0h0Z"/>
</svg>