<?xml version="1.0" encoding="UTF-8"?>
<svg id="Camada_1" xmlns="http://www.w3.org/2000/svg" version="1.1" xmlns:xlink="http://www.w3.org/1999/xlink" viewBox="0 0 48 48">
  <!-- Generator: Adobe Illustrator 29.8.1, SVG Export Plug-In . SVG Version: 2.1.1 Build 2)  -->
  <defs>
    <style>
      .st0 {
        fill: url(#Gradiente_sem_nome_10);
        fill-rule: evenodd;
      }
    </style>
    <linearGradient id="Gradiente_sem_nome_10" data-name="Gradiente sem nome 10" x1="4.11" y1="9.65" x2="43.03" y2="37.73" gradientUnits="userSpaceOnUse">
      <stop offset=".03" stop-color="#283b52"/>
      <stop offset=".29" stop-color="#4699b9"/>
      <stop offset=".7" stop-color="#4db9ad"/>
    </linearGradient>
  </defs>
  <path class="st0" d="M0,24C0,10.75,10.75,0,24,0s24,10.75,24,24-10.75,24-24,24S0,37.25,0,24ZM16.96,19.88h-5.44v16.34h5.44v-16.34ZM17.32,14.82c-.04-1.6-1.18-2.82-3.04-2.82s-3.08,1.22-3.08,2.82,1.18,2.82,3.01,2.82h.03c1.9,0,3.08-1.26,3.08-2.82ZM36.58,26.85c0-5.02-2.68-7.36-6.26-7.36-2.89,0-4.18,1.59-4.9,2.7v-2.31h-5.44c.07,1.53,0,16.34,0,16.34h5.44v-9.13c0-.49.04-.98.18-1.33.39-.98,1.29-1.99,2.79-1.99,1.97,0,2.76,1.5,2.76,3.69v8.74h5.44v-9.37Z"/>
</svg>