<?xml version="1.0" encoding="UTF-8"?>
<svg id="Camada_1" xmlns="http://www.w3.org/2000/svg" version="1.1" viewBox="0 0 512 512">
  <!-- Generator: Adobe Illustrator 29.8.2, SVG Export Plug-In . SVG Version: 2.1.1 Build 3)  -->
  <defs>
    <style>
      .st0 {
        fill: #fff;
      }

      .st1 {
        fill: #283b52;
      }
    </style>
  </defs>
  <circle class="st0" cx="256" cy="256" r="256"/>
  <path class="st1" d="M402.97,194.26c-8.03-19.1-19.56-36.24-34.26-50.97-14.7-14.7-31.83-26.24-50.97-34.26-19.56-8.21-40.34-12.38-61.75-12.38h-.71c-21.56.11-42.43,4.37-62.06,12.77-18.96,8.1-35.97,19.63-50.5,34.33-14.55,14.7-25.97,31.76-33.86,50.79-8.18,19.7-12.31,40.65-12.2,62.21.11,24.68,6.01,49.19,17.08,71.1v54.07c0,9.03,7.32,16.35,16.35,16.35h54.11c21.91,11.05,46.42,16.97,71.1,17.08h.75c21.31,0,41.98-4.13,61.43-12.2,19.03-7.94,36.13-19.32,50.79-33.86,14.7-14.55,26.24-31.54,34.33-50.5,8.4-19.63,12.66-40.52,12.77-62.06.11-21.65-4.1-42.69-12.38-62.47h0ZM349.22,350.06c-24.93,24.68-58.02,38.28-93.22,38.28h-.6c-21.45-.11-42.76-5.45-61.57-15.48l-2.99-1.6h-50.08v-50.08l-1.6-2.99c-10.03-18.81-15.37-40.12-15.48-61.57-.15-35.46,13.4-68.75,38.28-93.83,24.82-25.08,58.02-38.95,93.48-39.08h.6c17.79,0,35.04,3.44,51.28,10.27,15.86,6.65,30.09,16.23,42.32,28.45,12.2,12.2,21.8,26.46,28.45,42.32,6.9,16.43,10.34,33.86,10.27,51.87-.22,35.42-14.11,68.62-39.15,93.44h.02Z"/>
  <path class="st1" d="M327.68,287.29c-3.88-1.99-23.18-11.45-26.79-12.73-3.59-1.35-6.23-1.99-8.81,1.99-2.64,3.95-10.11,12.73-12.46,15.41-2.28,2.64-4.59,2.95-8.47,1-23.06-11.53-38.17-20.56-53.36-46.64-4.02-6.94,4.02-6.45,11.53-21.42,1.27-2.64.64-4.88-.36-6.87-1-1.99-8.81-21.27-12.09-29.14-3.17-7.65-6.45-6.57-8.81-6.72-2.28-.15-4.88-.15-7.5-.15s-6.87,1-10.45,4.88c-3.59,3.95-13.73,13.44-13.73,32.73s14.04,37.95,15.97,40.59c1.99,2.64,27.64,42.18,67.02,59.22,24.9,10.74,34.64,11.67,47.09,9.82,7.58-1.15,23.18-9.47,26.42-18.67,3.24-9.18,3.24-17.05,2.28-18.67-.97-1.75-3.59-2.73-7.47-4.63h0v-.02Z"/>
</svg>