<?xml version="1.0" encoding="UTF-8"?>
<svg id="Camada_1" xmlns="http://www.w3.org/2000/svg" version="1.1" xmlns:xlink="http://www.w3.org/1999/xlink" viewBox="0 0 48 48">
  <!-- Generator: Adobe Illustrator 29.8.1, SVG Export Plug-In . SVG Version: 2.1.1 Build 2)  -->
  <defs>
    <style>
      .st0 {
        fill: url(#Gradiente_sem_nome_47);
      }

      .st1 {
        fill: url(#Gradiente_sem_nome_62);
      }

      .st1, .st2 {
        fill-rule: evenodd;
      }

      .st2 {
        fill: url(#Gradiente_sem_nome_3);
      }
    </style>
    <linearGradient id="Gradiente_sem_nome_62" data-name="Gradiente sem nome 62" x1="7.22" y1="43.51" x2="40.43" y2="8.86" gradientTransform="translate(0 50) scale(1 -1)" gradientUnits="userSpaceOnUse">
      <stop offset=".03" stop-color="#283b52"/>
      <stop offset=".29" stop-color="#4699b9"/>
      <stop offset=".7" stop-color="#4db9ad"/>
    </linearGradient>
    <linearGradient id="Gradiente_sem_nome_47" data-name="Gradiente sem nome 47" x1="15.38" y1="35.39" x2="32.62" y2="16.61" gradientTransform="translate(0 50) scale(1 -1)" gradientUnits="userSpaceOnUse">
      <stop offset="0" stop-color="#283b52"/>
      <stop offset=".31" stop-color="#4699b9"/>
      <stop offset=".76" stop-color="#4db9ad"/>
    </linearGradient>
    <linearGradient id="Gradiente_sem_nome_3" data-name="Gradiente sem nome 3" x1="21.35" y1="28.97" x2="27.03" y2="22.61" gradientTransform="translate(0 50) scale(1 -1)" gradientUnits="userSpaceOnUse">
      <stop offset="0" stop-color="#4699b9"/>
      <stop offset=".05" stop-color="#4699b9"/>
      <stop offset=".39" stop-color="#4699b9"/>
      <stop offset=".44" stop-color="#47a0b6"/>
      <stop offset=".61" stop-color="#4bb2af"/>
      <stop offset=".73" stop-color="#4db9ad"/>
      <stop offset=".84" stop-color="#4eb9ad"/>
      <stop offset=".88" stop-color="#55bcb0"/>
      <stop offset=".91" stop-color="#61c1b6"/>
      <stop offset=".93" stop-color="#72c7be"/>
      <stop offset=".95" stop-color="#88d0c8"/>
      <stop offset=".96" stop-color="#a3dbd4"/>
      <stop offset=".98" stop-color="#c3e7e3"/>
      <stop offset=".99" stop-color="#e8f6f4"/>
      <stop offset="1" stop-color="#fff"/>
    </linearGradient>
  </defs>
  <path class="st1" d="M0,24C0,10.75,10.75,0,24,0s24,10.75,24,24-10.75,24-24,24S0,37.25,0,24ZM24,11.2c-3.48,0-3.91.02-5.28.08-1.36.06-2.29.28-3.11.59-.84.33-1.56.76-2.27,1.48-.71.71-1.15,1.43-1.48,2.27-.32.81-.53,1.74-.59,3.11s-.08,1.8-.08,5.28.02,3.91.08,5.28c.06,1.36.28,2.29.59,3.11.33.84.76,1.56,1.48,2.27.71.71,1.43,1.15,2.27,1.48.81.32,1.74.53,3.11.59s1.8.08,5.28.08,3.91-.02,5.28-.08c1.36-.06,2.29-.28,3.11-.59.84-.33,1.55-.77,2.27-1.48.71-.71,1.15-1.43,1.48-2.27.31-.81.53-1.74.59-3.11s.08-1.8.08-5.28-.02-3.91-.08-5.28c-.06-1.36-.28-2.29-.59-3.11-.33-.84-.77-1.56-1.48-2.27-.71-.71-1.42-1.15-2.27-1.48-.82-.32-1.75-.53-3.11-.59-1.37-.06-1.8-.08-5.28-.08h0Z"/>
  <path class="st0" d="M22.85,13.51h1.15c3.42,0,3.82.01,5.17.07,1.25.06,1.93.27,2.38.44.6.23,1.02.51,1.47.96s.73.87.96,1.47c.18.45.38,1.13.44,2.38.06,1.35.07,1.75.07,5.17s0,3.82-.07,5.17c-.06,1.25-.27,1.93-.44,2.38-.23.6-.51,1.02-.96,1.47s-.87.73-1.47.96c-.45.18-1.13.38-2.38.44-1.35.06-1.75.07-5.17.07s-3.82,0-5.17-.07c-1.25-.06-1.93-.27-2.38-.44-.6-.23-1.02-.51-1.47-.96s-.73-.87-.96-1.47c-.18-.45-.38-1.13-.44-2.38-.06-1.35-.07-1.75-.07-5.17s.01-3.82.07-5.17c.06-1.25.27-1.93.44-2.38.23-.6.51-1.02.96-1.47s.87-.73,1.47-.96c.45-.18,1.13-.38,2.38-.44,1.18-.05,1.64-.07,4.02-.07h0ZM30.83,15.63c-.85,0-1.54.69-1.54,1.54s.69,1.54,1.54,1.54,1.54-.69,1.54-1.54-.69-1.54-1.54-1.54ZM24,17.43c-3.63,0-6.57,2.94-6.57,6.57s2.94,6.57,6.57,6.57,6.57-2.94,6.57-6.57-2.94-6.57-6.57-6.57Z"/>
  <path class="st2" d="M24,19.73c2.36,0,4.27,1.91,4.27,4.27s-1.91,4.27-4.27,4.27-4.27-1.91-4.27-4.27,1.91-4.27,4.27-4.27Z"/>
</svg>