<?xml version="1.0" encoding="UTF-8"?>
<svg id="Capa_1" xmlns="http://www.w3.org/2000/svg" version="1.1" viewBox="0 0 512 512">
  <!-- Generator: Adobe Illustrator 29.8.1, SVG Export Plug-In . SVG Version: 2.1.1 Build 2)  -->
  <defs>
    <style>
      .st0 {
        fill: #283b52;
        fill-rule: evenodd;
      }
    </style>
  </defs>
  <g id="WA_Logo">
    <path class="st0" d="M436.54,74.41C388.63,26.45,324.93.02,257.07,0,117.23,0,3.41,113.79,3.35,253.7c-.02,44.71,11.67,88.36,33.88,126.85L1.22,512l134.49-35.29c37.06,20.22,78.78,30.87,121.24,30.89h.11c139.82,0,253.65-113.81,253.72-253.72.04-67.78-26.33-131.54-74.22-179.48ZM257.07,464.75h-.09c-37.85,0-74.94-10.18-107.33-29.4l-7.7-4.57-79.81,20.93,21.31-77.82-5.01-7.98c-21.12-33.58-32.26-72.38-32.23-112.21.04-116.27,94.66-210.86,210.97-210.86,56.32,0,109.27,21.97,149.08,61.82,39.81,39.87,61.72,92.84,61.7,149.18-.06,116.31-94.66,210.9-210.88,210.9ZM372.74,306.82c-6.34-3.18-37.5-18.52-43.33-20.63-5.8-2.11-10.03-3.18-14.27,3.16s-16.36,20.63-20.07,24.87c-3.69,4.22-7.4,4.76-13.74,1.58-6.34-3.18-26.77-9.86-50.99-31.47-18.84-16.81-31.57-37.57-35.26-43.93s-.38-9.77,2.77-12.93c2.86-2.84,6.34-7.4,9.51-11.11,3.2-3.67,4.25-6.31,6.38-10.56,2.11-4.22,1.07-7.94-.53-11.11-1.6-3.16-14.27-34.37-19.54-47.06-5.14-12.37-10.37-10.69-14.27-10.88-3.69-.19-7.91-.21-12.16-.21s-11.09,1.58-16.9,7.94c-5.8,6.36-22.19,21.7-22.19,52.89s22.72,61.35,25.88,65.58,44.69,68.27,108.29,95.72c15.13,6.53,26.94,10.43,36.14,13.35,15.19,4.82,29.01,4.14,39.94,2.52,12.18-1.81,37.5-15.34,42.79-30.14s5.29-27.52,3.69-30.14c-1.58-2.67-5.8-4.25-12.14-7.42Z"/>
  </g>
</svg>